<?xml version="1.0" standalone="no"?><!DOCTYPE svg PUBLIC "-//W3C//DTD SVG 1.1//EN" "http://www.w3.org/Graphics/SVG/1.1/DTD/svg11.dtd"><svg t="1623138905211" class="icon" viewBox="0 0 1024 1024" version="1.1" xmlns="http://www.w3.org/2000/svg" p-id="2201" xmlns:xlink="http://www.w3.org/1999/xlink" width="200" height="200"><defs><style type="text/css"></style></defs><path d="M512 938.666667C277.333333 938.666667 85.333333 746.666667 85.333333 512S277.333333 85.333333 512 85.333333s426.666667 192 426.666667 426.666667-192 426.666667-426.666667 426.666667z m0-768c-187.733333 0-341.333333 153.6-341.333333 341.333333s153.6 341.333333 341.333333 341.333333 341.333333-153.6 341.333333-341.333333-153.6-341.333333-341.333333-341.333333z" p-id="2202"></path><path d="M384 384c0-12.8 8.533333-21.333333 21.333333-21.333333h213.333334c12.8 0 21.333333 8.533333 21.333333 21.333333v21.333333H384V384z" p-id="2203"></path><path d="M597.333333 362.666667h21.333334c12.8 0 21.333333 8.533333 21.333333 21.333333v42.666667c0 12.8-8.533333 21.333333-21.333333 21.333333s-21.333333-8.533333-21.333334-21.333333V362.666667zM384 618.666667h256v21.333333c0 12.8-8.533333 21.333333-21.333333 21.333333h-213.333334c-12.8 0-21.333333-8.533333-21.333333-21.333333v-21.333333zM384 490.666667h234.666667c12.8 0 21.333333 8.533333 21.333333 21.333333v21.333333H405.333333c-12.8 0-21.333333-8.533333-21.333333-21.333333v-21.333333z" p-id="2204"></path><path d="M384 597.333333c0-12.8 8.533333-21.333333 21.333333-21.333333s21.333333 8.533333 21.333334 21.333333v64h-21.333334c-12.8 0-21.333333-8.533333-21.333333-21.333333v-42.666667zM426.666667 362.666667v170.666666h-21.333334c-12.8 0-21.333333-8.533333-21.333333-21.333333V384c0-12.8 8.533333-21.333333 21.333333-21.333333h21.333334zM618.666667 490.666667c12.8 0 21.333333 8.533333 21.333333 21.333333v128c0 12.8-8.533333 21.333333-21.333333 21.333333H597.333333v-170.666666h21.333334zM512 298.666667c12.8 0 21.333333 8.533333 21.333333 21.333333v384c0 12.8-8.533333 21.333333-21.333333 21.333333s-21.333333-8.533333-21.333333-21.333333v-384c0-12.8 8.533333-21.333333 21.333333-21.333333z" p-id="2205"></path></svg>